<svg t="1692007251961" class="icon" viewBox="0 0 1024 1024" version="1.1"
  xmlns="http://www.w3.org/2000/svg" p-id="965" width="16" height="16">
  <path d="M512 160a352 352 0 1 0 0 704 352 352 0 0 0 0-704zM96 512a416 416 0 1 1 832 0 416 416 0 0 1-832 0z" p-id="966"></path>
  <path d="M587.904 226.304a32 32 0 0 1 19.712 35.136L575.616 448H640a32 32 0 0 1 26.624 49.792l-192 288a32 32 0 0 1-58.176-23.168L448.512 576H384a32 32 0 0 1-26.624-49.728l192-288a32 32 0 0 1 38.4-11.968zM443.904 512H486.4a32 32 0 0 1 31.552 37.44l-12.928 75.392L580.288 512H537.6a32 32 0 0 1-31.552-37.376l12.928-75.392L443.84 512z" p-id="967"></path>
</svg>